<?xml version="1.0" encoding="UTF-8"?>
<!-- Diamante Wozial. fill="currentColor" para que tome el color del contexto. -->
<svg xmlns="http://www.w3.org/2000/svg" viewBox="0 0 75.2 81.87" fill="currentColor" role="img" aria-label="Wozial">
  <path d="M72.67,40.49l1.92-1.76-13.99-15.24h12.07v-5.06h-15.42V2.53h-5.06v15.9h-29.13V2.53h-5.06v15.9H2.53v5.06h12.13L.67,38.73l1.86,1.71v2.53h32.54v36.37h5.06v-36.37h32.54v-2.49ZM8.29,37.91l13.24-14.42h13.54v14.42H8.29ZM40.13,23.49h13.59l13.24,14.42h-26.83v-14.42Z"/>
  <path d="M37.6,81.87c-.69,0-1.38-.28-1.88-.84L.65,42.14c-.42-.46-.65-1.07-.65-1.69v-19.38c0-.66.26-1.29.72-1.77L18.74.77C19.23.27,19.9,0,20.59,0c.7.01,1.35.31,1.83.82l17.04,18.52c.95,1.03.88,2.63-.15,3.58-1.03.95-2.63.88-3.57-.15L20.51,6.21l-15.45,15.87v17.38l34.42,38.18c.93,1.04.85,2.64-.18,3.57-.48.44-1.09.65-1.69.65"/>
  <path d="M37.6,81.87c-.6,0-1.21-.21-1.69-.65-1.04-.93-1.12-2.54-.18-3.57l34.42-38.18v-17.38l-15.45-15.87-15.23,16.56c-.95,1.03-2.55,1.09-3.58.15-1.03-.95-1.1-2.55-.15-3.58L52.78.82c.47-.51,1.13-.81,1.83-.82.7-.04,1.36.27,1.85.76l18.03,18.52c.46.47.72,1.11.72,1.77v19.38c0,.63-.23,1.23-.65,1.69l-35.07,38.9c-.5.56-1.19.84-1.88.84"/>
</svg>
